<svg width="128" height="128" xmlns="http://www.w3.org/2000/svg" xml:space="preserve" version="1.1">

 <g>
  <title>Layer 1</title>
  <g id="svg_1">
   <circle id="svg_2" fill="none" r="13" cy="70" cx="102" class="st0"/>
   <path id="svg_3" fill="#0F50EC" d="m26,83c-7.2,0 -13,-5.8 -13,-13l0,-12.5l12.5,0l0,-12l-12.5,0l0,-12.5l-12,0l0,12.5l0,12l0,12.5c0,13.8 11.2,25 25,25c7.6,0 14.4,-3.4 19,-8.8c-3.7,-4.4 -6,-10 -6,-16.2c0,7.1 -5.9,13 -13,13z" class="st1"/>
   <path id="svg_4" fill="#F48A31" d="m77,70c0,7.2 -5.8,13 -13,13s-13,-5.8 -13,-13l0,-12.5l12.5,0l0,-12l-12.5,0l0,-12.5l-12,0l0,12.5l0,12l0,12.5c0,6.2 2.3,11.9 6,16.2c4.6,5.4 11.4,8.8 19,8.8s14.4,-3.4 19,-8.8c-3.8,-4.4 -6,-10 -6,-16.2z" class="st2"/>
   <path id="svg_5" fill="#022D61" d="m102,45c-4.8,0 -9.2,1.3 -13,3.6l0,-15.6l-12,0l0,37c0,6.2 2.3,11.9 6,16.2c4.6,5.4 11.4,8.8 19,8.8c13.8,0 25,-11.2 25,-25s-11.2,-25 -25,-25zm0,38c-7.2,0 -13,-5.8 -13,-13s5.8,-13 13,-13s13,5.8 13,13s-5.9,13 -13,13z" class="st3"/>
  </g>
 </g>
</svg>